<?xml version="1.0" standalone="no"?>
<!DOCTYPE svg PUBLIC "-//W3C//DTD SVG 20010904//EN"
 "http://www.w3.org/TR/2001/REC-SVG-20010904/DTD/svg10.dtd">
<svg version="1.0" xmlns="http://www.w3.org/2000/svg"
 width="500.000000pt" height="500.000000pt" viewBox="0 0 500.000000 500.000000"
 preserveAspectRatio="xMidYMid meet">

<g transform="translate(0.000000,500.000000) scale(0.100000,-0.100000)"
fill="#000000" stroke="none">
<path d="M2425 3943 c-322 -20 -594 -157 -768 -385 -141 -185 -217 -406 -217
-632 0 -61 -3 -70 -25 -88 -55 -43 -58 -61 -40 -256 24 -258 46 -294 187 -308
68 -7 68 -7 87 -48 24 -54 51 -77 98 -82 49 -6 101 20 123 63 16 29 16 39 4
90 -27 112 -55 340 -62 507 l-8 168 -32 29 c-18 16 -44 29 -58 29 -32 0 -80
-25 -93 -47 -31 -54 6 171 44 264 107 264 352 461 644 520 96 19 264 21 361 4
297 -53 557 -256 664 -520 26 -65 56 -199 56 -253 l0 -29 -22 26 c-30 34 -88
44 -124 20 -41 -26 -51 -68 -57 -235 -7 -157 -35 -380 -62 -479 -17 -67 -3
-110 47 -141 67 -41 145 -13 179 64 l19 44 67 7 c105 11 152 49 167 135 4 19
13 104 21 189 16 171 11 199 -39 238 -24 19 -26 27 -26 91 0 251 -96 503 -264
689 -104 116 -295 232 -461 281 -112 33 -290 53 -410 45z"/>
<path d="M2470 3472 c-24 -20 -25 -26 -70 -502 -12 -124 -24 -232 -27 -240 -3
-8 -19 88 -34 215 -31 250 -40 275 -92 261 -33 -8 -40 -29 -78 -246 -45 -260
-41 -253 -73 -115 -33 141 -45 165 -85 165 -38 0 -50 -17 -70 -97 -15 -61 -20
-68 -44 -71 -24 -3 -27 -7 -27 -43 0 -48 15 -57 71 -40 30 9 44 20 54 44 16
37 12 43 54 -108 21 -74 38 -116 52 -127 26 -22 32 -22 58 0 22 17 31 51 81
305 7 32 13 57 15 55 2 -2 10 -66 19 -143 34 -297 49 -401 62 -422 16 -26 55
-30 74 -8 13 16 29 135 60 465 22 231 38 320 39 227 1 -26 8 -110 15 -185 8
-75 20 -204 27 -287 13 -172 26 -215 63 -215 37 0 54 24 61 87 4 32 11 83 16
113 5 30 18 133 29 229 11 96 22 176 24 178 2 3 7 -15 11 -39 21 -136 61 -304
77 -320 46 -46 77 -10 112 127 16 61 31 114 34 119 3 5 12 -12 19 -38 15 -50
37 -66 94 -66 28 0 29 2 29 45 0 41 -2 45 -24 45 -20 0 -25 8 -41 68 -23 90
-38 112 -75 112 -38 0 -52 -22 -80 -130 -12 -47 -25 -88 -29 -92 -4 -4 -24 83
-45 195 -37 201 -50 237 -86 237 -42 0 -52 -32 -81 -261 -16 -122 -31 -224
-34 -227 -3 -3 -5 2 -5 11 0 24 -49 526 -60 622 -8 62 -15 84 -31 98 -26 21
-31 21 -59 -1z"/>
<path d="M835 1803 c-85 -22 -124 -127 -70 -192 15 -17 50 -39 83 -51 87 -33
110 -61 76 -94 -19 -20 -90 -20 -124 -1 -14 8 -30 14 -36 15 -11 0 -34 -42
-34 -61 0 -19 84 -49 138 -49 100 0 152 46 152 135 0 60 -32 94 -118 125 -73
27 -93 51 -65 82 15 16 26 19 63 15 25 -3 54 -8 66 -12 26 -8 52 39 33 61 -22
26 -109 41 -164 27z"/>
<path d="M1194 1800 c-41 -13 -100 -79 -113 -127 -44 -156 42 -303 176 -303
126 0 197 77 197 215 1 131 -64 212 -175 220 -30 3 -68 0 -85 -5z m128 -90
c37 -29 51 -71 46 -141 -4 -54 -8 -66 -36 -90 -34 -31 -86 -38 -123 -19 -72
39 -69 223 5 259 34 16 82 12 108 -9z"/>
<path d="M1520 1643 c0 -136 3 -162 20 -198 27 -55 69 -78 141 -78 70 1 109
22 138 73 19 34 21 54 21 199 l0 161 -40 0 -40 0 0 -146 c0 -181 -9 -204 -81
-204 -66 0 -74 19 -77 196 l-3 154 -40 0 -39 0 0 -157z"/>
<path d="M1913 1588 l5 -213 41 -3 40 -3 3 137 3 138 47 -75 c26 -41 64 -102
83 -136 35 -60 38 -63 76 -63 l39 0 0 118 c0 64 -3 161 -7 215 l-6 97 -39 0
-38 0 0 -132 0 -132 -82 132 -83 131 -43 1 -44 0 5 -212z"/>
<path d="M2320 1586 l0 -216 85 0 c180 0 265 71 265 222 0 75 -25 125 -83 172
-38 30 -43 31 -153 34 l-114 4 0 -216z m237 99 c29 -32 38 -99 21 -149 -18
-54 -53 -78 -119 -80 l-54 -1 -3 132 c-3 130 -2 132 20 135 46 7 113 -11 135
-37z"/>
<path d="M2716 1713 c14 -49 39 -140 56 -203 16 -63 32 -121 34 -127 2 -8 21
-13 48 -13 45 0 45 0 56 43 43 163 65 235 71 224 4 -7 21 -64 39 -127 17 -63
34 -121 36 -127 2 -8 21 -13 48 -13 42 0 46 2 52 28 3 15 28 107 55 205 27 98
49 183 49 188 0 6 -18 9 -42 7 l-42 -3 -37 -145 c-20 -80 -40 -138 -43 -130
-3 8 -19 67 -36 130 -17 63 -33 123 -36 133 -5 14 -14 17 -47 15 l-41 -3 -37
-138 c-20 -76 -39 -141 -42 -143 -2 -2 -21 61 -42 141 l-38 145 -42 0 -43 0
24 -87z"/>
<path d="M3326 1595 c-37 -112 -67 -208 -67 -212 1 -4 20 -8 43 -8 39 0 42 2
51 35 14 56 23 61 96 58 l65 -3 14 -47 13 -48 45 0 c36 0 44 3 44 18 0 10 -4
22 -9 28 -5 5 -36 93 -71 197 l-62 187 -47 0 -47 0 -68 -205z m164 -52 c0 -2
-20 -3 -45 -3 -29 0 -45 4 -45 13 0 11 24 95 36 127 3 9 16 -17 30 -60 13 -41
24 -76 24 -77z"/>
<path d="M3664 1588 l73 -213 49 0 48 0 73 213 72 213 -45 -3 -46 -3 -45 -145
c-25 -80 -47 -152 -50 -160 -3 -8 -28 57 -57 145 l-52 160 -46 3 -47 3 73
-213z"/>
<path d="M4030 1595 c0 -113 0 -208 0 -212 0 -5 55 -8 123 -8 l122 0 3 38 3
37 -85 0 -86 0 0 50 0 49 68 3 67 3 0 35 0 35 -67 3 -68 3 0 49 0 50 85 0 85
0 0 35 0 35 -125 0 -125 0 0 -205z"/>
</g>
</svg>
