<?xml version="1.0" standalone="no"?>
<!DOCTYPE svg PUBLIC "-//W3C//DTD SVG 20010904//EN"
 "http://www.w3.org/TR/2001/REC-SVG-20010904/DTD/svg10.dtd">
<svg version="1.0" xmlns="http://www.w3.org/2000/svg"
 width="1024.000000pt" height="1024.000000pt" viewBox="0 0 1024.000000 1024.000000"
 preserveAspectRatio="xMidYMid meet">

<g transform="translate(0.000000,1024.000000) scale(0.100000,-0.100000)"
fill="#000000" stroke="none">
<path d="M4670 9835 c-439 -45 -864 -149 -1275 -312 -1009 -399 -1787 -1058
-2336 -1980 -416 -698 -649 -1548 -649 -2361 1 -702 166 -1392 495 -2065 397
-814 1039 -1511 1815 -1972 959 -570 2120 -783 3205 -589 563 101 1074 288
1580 579 154 88 457 293 585 394 681 543 1232 1327 1507 2145 126 377 194 699
234 1111 15 153 14 620 0 790 -48 539 -188 1061 -423 1569 -355 766 -875 1390
-1548 1858 -203 141 -591 357 -810 452 -462 201 -835 301 -1380 372 -166 22
-819 28 -1000 9z m795 -1858 c530 -75 1020 -277 1435 -592 450 -342 788 -830
954 -1378 89 -293 119 -503 120 -817 0 -469 -86 -844 -289 -1265 -292 -607
-890 -1144 -1542 -1386 -307 -114 -630 -177 -948 -186 -564 -16 -1093 121
-1561 403 -266 159 -577 444 -796 726 -291 376 -482 846 -543 1341 -20 162
-20 514 0 677 102 826 504 1506 1175 1984 149 107 386 241 540 307 207 88 491
163 710 188 52 6 109 13 125 15 64 9 525 -4 620 -17z"/>
<path d="M5017 7198 c-545 -28 -1000 -341 -1242 -852 -94 -197 -165 -476 -165
-644 0 -26 -11 -53 -37 -91 l-38 -55 1 -230 c1 -258 11 -332 52 -391 35 -50
145 -108 250 -131 70 -16 75 -18 88 -53 27 -67 37 -80 69 -96 40 -18 111 -19
145 -2 36 18 70 74 70 116 0 20 -9 67 -20 106 -42 146 -51 261 -48 580 l3 300
-25 49 c-42 83 -133 109 -227 66 l-43 -19 0 22 c0 12 9 58 19 102 91 376 320
683 635 851 311 165 690 196 1034 84 324 -105 573 -321 727 -630 43 -85 123
-320 132 -387 l6 -45 -33 17 c-53 27 -139 30 -177 6 -68 -43 -67 -38 -74 -431
-7 -359 -15 -448 -54 -574 -22 -71 -19 -127 8 -167 28 -42 60 -59 112 -59 67
0 107 27 132 90 l21 55 85 21 c170 42 242 97 273 210 16 59 19 104 19 310 l0
242 -32 40 c-30 37 -34 52 -48 159 -32 241 -84 422 -178 611 -181 369 -475
621 -875 752 -190 61 -343 80 -565 68z"/>
<path d="M5064 6544 c-16 -39 -41 -265 -90 -827 -15 -176 -31 -310 -35 -300
-4 11 -10 46 -14 79 -4 32 -13 103 -21 158 -8 54 -26 181 -39 282 -14 101 -30
195 -37 208 -24 53 -80 40 -98 -22 -12 -46 -106 -528 -116 -597 -3 -27 -9 -54
-11 -58 -3 -5 -21 51 -40 125 -73 284 -79 298 -139 298 -56 0 -77 -31 -124
-180 -23 -73 -45 -150 -47 -171 -5 -34 -3 -39 19 -44 14 -4 40 -5 59 -3 34 3
34 3 58 96 15 57 27 88 32 80 4 -7 30 -102 58 -212 28 -109 58 -207 67 -217
26 -29 99 -26 119 4 8 12 30 110 49 217 19 107 39 213 44 235 l9 40 6 -30 c3
-16 20 -127 37 -245 39 -272 83 -490 106 -525 13 -20 24 -25 48 -23 26 2 33 9
43 39 14 45 45 282 77 608 14 134 27 246 30 248 6 6 11 -34 41 -327 29 -280
51 -450 66 -498 6 -18 22 -40 35 -49 24 -15 27 -15 52 4 15 11 32 38 39 63 16
53 55 284 98 575 18 121 35 213 38 205 2 -8 19 -91 37 -185 62 -320 72 -345
141 -345 54 0 68 24 113 196 21 82 44 169 50 194 l12 45 24 -89 c28 -106 39
-119 88 -110 73 13 74 14 45 106 -56 183 -85 263 -100 280 -21 23 -95 24 -117
3 -18 -19 -33 -67 -71 -230 -15 -66 -31 -129 -34 -139 -5 -13 -17 29 -35 120
-50 252 -96 458 -112 502 -16 44 -49 67 -78 56 -32 -12 -42 -59 -101 -469 -25
-175 -47 -320 -48 -322 -1 -1 -20 170 -41 380 -80 798 -80 799 -144 805 -29 3
-34 0 -48 -34z"/>
<path d="M3010 4272 c-49 -24 -80 -75 -80 -129 0 -66 28 -98 129 -147 78 -37
86 -44 89 -72 2 -18 -3 -36 -12 -43 -22 -19 -93 -21 -149 -4 -27 8 -50 13 -52
11 -2 -2 -5 -21 -7 -43 -3 -37 0 -41 32 -57 23 -12 58 -18 105 -18 129 1 195
53 195 155 0 78 -25 109 -126 156 -46 21 -87 46 -91 55 -18 47 52 72 134 49
28 -8 54 -15 57 -15 3 0 6 22 6 49 0 46 -2 50 -31 60 -50 17 -159 14 -199 -7z"/>
<path d="M3464 4271 c-160 -73 -182 -363 -35 -466 40 -28 49 -30 131 -30 82 0
91 2 131 30 64 45 93 109 98 213 5 128 -36 214 -124 253 -53 24 -147 24 -201
0z m140 -86 c90 -43 101 -212 20 -293 -30 -30 -39 -34 -71 -29 -69 12 -103 67
-103 169 0 77 23 126 71 150 41 22 43 22 83 3z"/>
<path d="M3870 4101 c0 -202 5 -228 48 -274 42 -45 76 -57 151 -58 81 -1 127
17 170 67 44 49 51 90 51 282 l0 172 -55 0 -55 0 0 -157 c0 -222 -16 -264
-100 -267 -31 0 -46 5 -67 27 l-28 27 -3 185 -3 185 -55 0 -54 0 0 -189z"/>
<path d="M4387 4283 c-4 -3 -7 -120 -7 -260 l0 -253 55 0 55 0 2 172 3 173 44
-75 c25 -41 73 -119 108 -172 l63 -98 50 0 50 0 0 260 0 260 -50 0 -50 0 -2
-162 -3 -163 -40 65 c-21 36 -68 109 -102 163 l-63 97 -54 0 c-29 0 -56 -3
-59 -7z"/>
<path d="M4900 4030 l0 -263 123 5 c134 6 173 17 230 67 100 88 96 319 -7 395
-50 37 -93 48 -223 53 l-123 6 0 -263z m239 142 c47 -25 71 -74 71 -143 0 -94
-59 -159 -146 -162 l-49 -2 -3 163 -2 162 47 0 c28 0 63 -8 82 -18z"/>
<path d="M5350 4279 c0 -6 25 -97 56 -202 31 -106 63 -218 72 -250 l16 -58 61
3 60 3 33 120 c57 204 59 211 64 195 3 -8 23 -82 44 -165 l39 -150 60 0 59 0
17 50 c10 28 45 138 79 245 35 107 65 201 67 208 4 9 -11 12 -55 12 l-61 0
-15 -55 c-9 -30 -32 -112 -51 -181 -35 -129 -45 -154 -45 -117 0 11 -20 94
-44 184 l-43 164 -51 3 -50 3 -21 -69 c-11 -38 -32 -114 -46 -168 -15 -55 -29
-106 -32 -114 -3 -8 -22 48 -43 125 -20 77 -42 159 -49 183 l-12 42 -54 0
c-32 0 -55 -4 -55 -11z"/>
<path d="M6205 4278 c-3 -7 -42 -125 -89 -261 l-84 -248 60 3 60 3 20 63 19
62 77 0 78 0 20 -62 20 -63 62 -3 61 -3 -79 228 c-43 125 -84 243 -90 261 -12
31 -13 32 -71 32 -39 0 -61 -4 -64 -12z m109 -260 c6 -28 6 -28 -45 -28 -44 0
-51 2 -46 18 2 9 13 47 23 84 l18 68 21 -58 c12 -31 25 -69 29 -84z"/>
<path d="M6470 4282 c0 -4 37 -120 83 -257 l84 -250 64 -3 64 -2 80 246 c44
135 81 252 83 260 3 11 -10 14 -56 14 l-59 0 -31 -102 c-17 -57 -42 -140 -54
-185 -21 -76 -38 -106 -38 -67 0 19 -88 311 -102 337 -7 13 -21 17 -63 17 -30
0 -55 -3 -55 -8z"/>
<path d="M6980 4030 l0 -260 165 0 165 0 0 50 0 50 -110 0 -110 0 0 60 0 60
100 0 100 0 0 50 0 50 -100 0 -100 0 0 50 0 50 110 0 110 0 0 50 0 50 -165 0
-165 0 0 -260z"/>
</g>
</svg>
